<?xml version="1.0" standalone="no"?>
<!DOCTYPE svg PUBLIC "-//W3C//DTD SVG 20010904//EN"
 "http://www.w3.org/TR/2001/REC-SVG-20010904/DTD/svg10.dtd">
<svg version="1.0" xmlns="http://www.w3.org/2000/svg"
 width="128.000000pt" height="128.000000pt" viewBox="0 0 128.000000 128.000000"
 preserveAspectRatio="xMidYMid meet">

<g transform="translate(0.000000,128.000000) scale(0.100000,-0.100000)"
fill="#000000" stroke="none">
<path d="M539 1110 l-84 -140 -183 0 c-154 0 -184 -2 -188 -15 -4 -9 29 -74
80 -159 47 -80 86 -150 86 -156 0 -6 -39 -76 -86 -156 -51 -85 -84 -150 -80
-159 4 -13 34 -15 188 -15 l183 0 84 -140 c57 -95 89 -140 101 -140 12 0 44
45 101 140 l84 140 183 0 c154 0 184 2 188 15 4 9 -29 74 -80 159 -47 80 -86
150 -86 156 0 6 39 76 86 156 51 85 84 150 80 159 -4 13 -34 15 -188 15 l-183
0 -84 140 c-57 95 -89 140 -101 140 -12 0 -44 -45 -101 -140z m161 -32 c30
-50 57 -95 58 -100 2 -4 -51 -8 -118 -8 -67 0 -120 4 -118 8 9 23 113 192 118
192 3 0 30 -41 60 -92z m-280 -162 c0 -3 -30 -54 -66 -115 l-67 -111 -49 82
c-28 46 -59 98 -70 116 l-20 32 136 0 c75 0 136 -2 136 -4z m459 -136 l83
-140 -83 -140 -84 -140 -155 0 -155 0 -84 140 -83 140 83 140 84 140 155 0
155 0 84 -140z m233 108 c-11 -18 -42 -70 -70 -116 l-49 -82 -67 111 c-36 61
-66 112 -66 115 0 2 61 4 136 4 l136 0 -20 -32z m-753 -417 c34 -57 60 -105
58 -108 -2 -2 -63 -2 -135 -1 l-130 3 66 112 c37 61 70 108 73 105 3 -4 34
-54 68 -111z m639 -109 c-72 -1 -133 -1 -135 1 -2 3 26 55 63 116 l67 111 68
-112 67 -113 -130 -3z m-240 -60 c-9 -23 -113 -192 -118 -192 -5 0 -109 169
-118 192 -2 4 51 8 118 8 67 0 120 -4 118 -8z"/>
</g>
</svg>
